<?xml version="1.0" encoding="utf-8"?>
<!-- Generator: Adobe Illustrator 16.2.1, SVG Export Plug-In . SVG Version: 6.00 Build 0)  -->
<!DOCTYPE svg PUBLIC "-//W3C//DTD SVG 1.1//EN" "http://www.w3.org/Graphics/SVG/1.1/DTD/svg11.dtd">
<svg version="1.1" id="Layer_1" xmlns="http://www.w3.org/2000/svg" xmlns:xlink="http://www.w3.org/1999/xlink" x="0px" y="0px"
	 width="18px" height="16px" viewBox="0 0 18 16" enable-background="new 0 0 18 16" xml:space="preserve">
<path id="Home_3_x2C__House_3" fill-rule="evenodd" clip-rule="evenodd" fill="#252A2A" d="M14.013,4.794V1.293
	c0-0.276-0.218-0.5-0.494-0.5h-1.002c-0.276,0-0.504,0.224-0.504,0.5v1.5L9.364,0.146c-0.195-0.195-0.511-0.195-0.706,0L0.113,8.441
	c-0.195,0.195-0.13,0.354,0.146,0.354h1.752v3v3.5c0,0.277,0.215,0.5,0.492,0.5h13.017c0.277,0,0.493-0.223,0.493-0.5v-6.5h1.729
	c0.276,0,0.339-0.158,0.144-0.354L14.013,4.794z M11.013,13.794v-3.5c0-0.275-0.222-0.5-0.498-0.5H7.51
	c-0.276,0-0.498,0.225-0.498,0.5v3.5h-3v-2V7.622l5.004-5l3.003,3l0.168,0.172l1.826,1.828v4.172v2H11.013z"/>
</svg>
