<?xml version="1.0" encoding="utf-8"?>
<!-- Generator: Adobe Illustrator 16.2.1, SVG Export Plug-In . SVG Version: 6.00 Build 0)  -->
<!DOCTYPE svg PUBLIC "-//W3C//DTD SVG 1.1//EN" "http://www.w3.org/Graphics/SVG/1.1/DTD/svg11.dtd">
<svg version="1.1" id="Layer_1" xmlns="http://www.w3.org/2000/svg" xmlns:xlink="http://www.w3.org/1999/xlink" x="0px" y="0px"
	 width="18px" height="17px" viewBox="0 0 18 17" enable-background="new 0 0 18 17" xml:space="preserve">
<g id="Exclamation_Point_1_x2C__Warning_1_x2C__Caution_1">
	<path fill="#252A2A" d="M8,7.46v3.001c0,0.275,0.224,0.5,0.5,0.5h1c0.275,0,0.5-0.225,0.5-0.5V7.46c0-0.276-0.224-0.5-0.5-0.5h-1
		C8.224,6.96,8,7.184,8,7.46z"/>
	<path fill="#252A2A" d="M9.5,11.961h-1c-0.276,0-0.5,0.223-0.5,0.5v1c0,0.275,0.224,0.5,0.5,0.5h1c0.275,0,0.5-0.225,0.5-0.5v-1
		C10,12.184,9.776,11.961,9.5,11.961z"/>
	<path fill="#252A2A" d="M17.883,15.49l-8-15.001c-0.348-0.652-1.418-0.652-1.766,0l-8,15.001c-0.165,0.309-0.155,0.684,0.025,0.984
		S0.648,16.961,1,16.961h16c0.352,0,0.676-0.186,0.857-0.486C18.037,16.174,18.047,15.799,17.883,15.49z M2.667,14.961L9,3.085
		l6.332,11.876H2.667z"/>
</g>
</svg>
