<?xml version="1.0" encoding="utf-8"?>
<!-- Generator: Adobe Illustrator 16.2.1, SVG Export Plug-In . SVG Version: 6.00 Build 0)  -->
<!DOCTYPE svg PUBLIC "-//W3C//DTD SVG 1.1//EN" "http://www.w3.org/Graphics/SVG/1.1/DTD/svg11.dtd">
<svg version="1.1" id="Layer_1" xmlns="http://www.w3.org/2000/svg" xmlns:xlink="http://www.w3.org/1999/xlink" x="0px" y="0px"
	 width="24px" height="24px" viewBox="0 0 24 24" enable-background="new 0 0 24 24" xml:space="preserve">
<path id="Megaphone_1_x2C__Announcement_1" fill="#252A2A" d="M22.5,0C21.671,0,21,0.671,21,1.5v0.287L1.185,6.033
	C0.493,6.182,0,6.793,0,7.5v6c0,0.707,0.493,1.318,1.185,1.467l3.315,0.71V19.5c0,0.613,0.374,1.164,0.943,1.393l7.5,3
	C13.122,23.965,13.312,24,13.5,24c0.296,0,0.589-0.088,0.841-0.258C14.753,23.463,15,22.998,15,22.5v-4.573l6,1.286V19.5
	c0,0.829,0.671,1.5,1.5,1.5s1.5-0.671,1.5-1.5V18V3V1.5C24,0.671,23.329,0,22.5,0z M12,20.285l-4.5-1.801V16.32l4.5,0.963V20.285z
	 M3,12.287V8.713l18-3.857v11.289L3,12.287z"/>
</svg>
