<?xml version="1.0" encoding="utf-8"?>
<!-- Generator: Adobe Illustrator 16.2.1, SVG Export Plug-In . SVG Version: 6.00 Build 0)  -->
<!DOCTYPE svg PUBLIC "-//W3C//DTD SVG 1.1//EN" "http://www.w3.org/Graphics/SVG/1.1/DTD/svg11.dtd">
<svg version="1.1" id="Layer_1" xmlns="http://www.w3.org/2000/svg" xmlns:xlink="http://www.w3.org/1999/xlink" x="0px" y="0px"
	 width="21px" height="24px" viewBox="0 0 21 24" enable-background="new 0 0 21 24" xml:space="preserve">
<g id="Document_4">
	<path fill="#252A2A" d="M15.75,0H1.5C0.671,0,0,0.671,0,1.5v21C0,23.329,0.671,24,1.5,24h18c0.829,0,1.5-0.671,1.5-1.5V5.25
		c0-0.415-0.237-0.987-0.53-1.28L17.03,0.53C16.737,0.237,16.163,0,15.75,0z M3,21V3h10.5v3.75c0,0.415,0.334,0.75,0.75,0.75H18V21
		H3z"/>
	<path fill="#252A2A" d="M11.25,4.5h-6C4.834,4.5,4.5,4.835,4.5,5.25v1.5c0,0.415,0.334,0.75,0.75,0.75h6
		C11.663,7.5,12,7.165,12,6.75v-1.5C12,4.835,11.663,4.5,11.25,4.5z"/>
	<path fill="#252A2A" d="M5.25,10.5h10.5c0.413,0,0.75-0.336,0.75-0.75l0,0C16.5,9.336,16.163,9,15.75,9H5.25
		C4.834,9,4.5,9.336,4.5,9.75l0,0C4.5,10.164,4.834,10.5,5.25,10.5z"/>
	<path fill="#252A2A" d="M5.25,13.5h10.5c0.413,0,0.75-0.336,0.75-0.75l0,0c0-0.414-0.337-0.75-0.75-0.75H5.25
		c-0.416,0-0.75,0.336-0.75,0.75l0,0C4.5,13.164,4.834,13.5,5.25,13.5z"/>
	<path fill="#252A2A" d="M5.25,16.5h10.5c0.413,0,0.75-0.336,0.75-0.75l0,0c0-0.414-0.337-0.75-0.75-0.75H5.25
		c-0.416,0-0.75,0.336-0.75,0.75l0,0C4.5,16.164,4.834,16.5,5.25,16.5z"/>
	<path fill="#252A2A" d="M5.25,19.5h10.5c0.413,0,0.75-0.336,0.75-0.75l0,0c0-0.414-0.337-0.75-0.75-0.75H5.25
		c-0.416,0-0.75,0.336-0.75,0.75l0,0C4.5,19.164,4.834,19.5,5.25,19.5z"/>
</g>
</svg>
