<?xml version="1.0" encoding="utf-8"?>
<!-- Generator: Adobe Illustrator 16.2.1, SVG Export Plug-In . SVG Version: 6.00 Build 0)  -->
<!DOCTYPE svg PUBLIC "-//W3C//DTD SVG 1.1//EN" "http://www.w3.org/Graphics/SVG/1.1/DTD/svg11.dtd">
<svg version="1.1" id="Layer_1" xmlns="http://www.w3.org/2000/svg" xmlns:xlink="http://www.w3.org/1999/xlink" x="0px" y="0px"
	 width="40.5px" height="24px" viewBox="0 0 40.5 24" enable-background="new 0 0 40.5 24" xml:space="preserve">
<g>
	<path fill="none" d="M6.702,14.708c-1.272-0.782-2.949-0.384-3.732,0.89c-0.787,1.275-0.387,2.952,0.888,3.736
		c1.274,0.786,2.949,0.387,3.734-0.888C8.376,17.171,7.978,15.495,6.702,14.708z"/>
	<path fill="none" d="M28.425,7.572c1.261-0.803,1.636-2.484,0.833-3.75c-0.803-1.262-2.484-1.635-3.747-0.833
		c-1.264,0.804-1.639,2.485-0.833,3.75C25.479,8,27.16,8.375,28.425,7.572z"/>
	<path fill="none" d="M13.823,3.149c-1.276-0.784-2.951-0.385-3.736,0.891C9.3,5.313,9.701,6.99,10.975,7.775
		c1.274,0.784,2.951,0.384,3.735-0.889C15.496,5.612,15.097,3.936,13.823,3.149z"/>
	<path fill="none" d="M32.794,14.444c-1.261,0.803-1.636,2.486-0.835,3.75c0.806,1.263,2.487,1.636,3.749,0.833
		c1.264-0.803,1.638-2.485,0.835-3.748S34.059,13.642,32.794,14.444z"/>
	<path fill="none" d="M21.385,15.322c-1.457-0.896-3.373-0.441-4.269,1.015c-0.898,1.458-0.443,3.372,1.014,4.269
		c1.457,0.897,3.37,0.443,4.27-1.014C23.296,18.133,22.842,16.222,21.385,15.322z"/>
	<path fill="#252A2A" d="M38.706,13.902c-1.564-2.458-4.828-3.186-7.287-1.621c-1.386,0.881-2.196,2.306-2.384,3.817l-3.413,0.35
		c-0.152-0.619-0.379-1.23-0.741-1.799c-0.36-0.566-0.817-1.031-1.313-1.434l1.767-2.941c1.447,0.473,3.082,0.34,4.466-0.539
		c2.461-1.564,3.187-4.828,1.622-7.287c-1.564-2.46-4.827-3.188-7.288-1.624c-2.459,1.566-3.187,4.829-1.623,7.288
		c0.102,0.159,0.228,0.29,0.343,0.435l-2.053,3.415c-0.058-0.011-0.084,0.021-0.1,0.064c-0.683-0.104-1.372-0.097-2.041,0.029
		L16.56,8.669c0.112-0.146,0.236-0.28,0.334-0.439c1.528-2.48,0.756-5.733-1.728-7.263c-2.481-1.53-5.735-0.755-7.263,1.726
		C6.374,5.177,7.147,8.429,9.63,9.958c1.398,0.861,3.033,0.968,4.473,0.475l1.808,2.915c-0.49,0.411-0.939,0.882-1.293,1.456
		c-0.353,0.571-0.57,1.185-0.714,1.805l-3.418-0.298c-0.207-1.509-1.04-2.925-2.438-3.783c-2.482-1.529-5.736-0.758-7.262,1.727
		c-1.531,2.483-0.757,5.736,1.726,7.264c2.48,1.526,5.735,0.755,7.263-1.729c0.1-0.161,0.162-0.328,0.24-0.495l3.969,0.352
		c0.403,1.388,1.283,2.64,2.607,3.457c2.838,1.748,6.557,0.863,8.303-1.973c0.322-0.524,0.525-1.083,0.674-1.648
		c0.001-0.001,0.016,0.008,0.016,0.005l3.966-0.41c0.08,0.165,0.145,0.332,0.247,0.492c1.564,2.461,4.828,3.186,7.288,1.623
		C39.545,19.627,40.271,16.365,38.706,13.902z M25.511,2.989c1.263-0.801,2.944-0.428,3.747,0.833
		c0.803,1.266,0.428,2.947-0.833,3.75C27.16,8.375,25.479,8,24.678,6.738C23.872,5.474,24.247,3.793,25.511,2.989z M14.71,6.887
		c-0.784,1.273-2.46,1.672-3.735,0.889C9.701,6.99,9.3,5.313,10.087,4.041c0.785-1.276,2.46-1.675,3.736-0.891
		C15.097,3.936,15.496,5.612,14.71,6.887z M7.591,18.446c-0.785,1.274-2.46,1.674-3.734,0.888c-1.275-0.784-1.675-2.461-0.888-3.736
		c0.784-1.273,2.46-1.672,3.732-0.89C7.978,15.495,8.376,17.171,7.591,18.446z M22.399,19.592c-0.899,1.457-2.812,1.911-4.27,1.014
		c-1.457-0.896-1.912-2.811-1.014-4.269c0.896-1.456,2.812-1.91,4.269-1.015C22.842,16.222,23.296,18.133,22.399,19.592z
		 M35.708,19.027c-1.262,0.803-2.943,0.43-3.749-0.833c-0.801-1.264-0.426-2.947,0.835-3.75c1.265-0.803,2.946-0.428,3.749,0.835
		S36.972,18.225,35.708,19.027z"/>
</g>
</svg>
