<?xml version="1.0" encoding="utf-8"?>
<!-- Generator: Adobe Illustrator 16.2.1, SVG Export Plug-In . SVG Version: 6.00 Build 0)  -->
<!DOCTYPE svg PUBLIC "-//W3C//DTD SVG 1.1//EN" "http://www.w3.org/Graphics/SVG/1.1/DTD/svg11.dtd">
<svg version="1.1" id="Layer_1" xmlns="http://www.w3.org/2000/svg" xmlns:xlink="http://www.w3.org/1999/xlink" x="0px" y="0px"
	 width="24px" height="24px" viewBox="0 0 24 24" enable-background="new 0 0 24 24" xml:space="preserve">
<g id="Star_2">
	<path fill="#252A2A" d="M18.641,23.849L12,20.193L5.36,23.847c-0.665,0.366-1.103,0.047-0.98-0.716l1.271-7.759l-5.341-5.45
		C-0.223,9.377-0.053,8.84,0.694,8.729l7.371-1.121l3.342-7.087c0.328-0.696,0.86-0.696,1.188,0l3.339,7.087l7.372,1.121
		c0.745,0.111,0.917,0.648,0.384,1.193l-5.342,5.45l1.272,7.759C19.744,23.894,19.306,24.215,18.641,23.849z M5.127,10.884
		l3.454,3.526l-0.807,4.93L12,17.016l4.226,2.324l-0.808-4.93l3.454-3.526l-4.772-0.725L12,5.704L9.9,10.159L5.127,10.884z"/>
</g>
</svg>
