<?xml version="1.0" encoding="utf-8"?>
<!-- Generator: Adobe Illustrator 16.2.1, SVG Export Plug-In . SVG Version: 6.00 Build 0)  -->
<!DOCTYPE svg PUBLIC "-//W3C//DTD SVG 1.1//EN" "http://www.w3.org/Graphics/SVG/1.1/DTD/svg11.dtd">
<svg version="1.1" id="Layer_1" xmlns="http://www.w3.org/2000/svg" xmlns:xlink="http://www.w3.org/1999/xlink" x="0px" y="0px"
	 width="24px" height="21px" viewBox="0 0 24 21" enable-background="new 0 0 24 21" xml:space="preserve">
<g id="Menu_List_4">
	<path fill-rule="evenodd" clip-rule="evenodd" fill="#252A2A" d="M12,0.75v1.5C12,2.664,12.334,3,12.75,3h10.5
		C23.663,3,24,2.664,24,2.25v-1.5C24,0.336,23.663,0,23.25,0h-10.5C12.334,0,12,0.336,12,0.75z"/>
	<path fill-rule="evenodd" clip-rule="evenodd" fill="#252A2A" d="M12,5.25v1.5c0,0.414,0.334,0.75,0.75,0.75h7.5
		C20.663,7.5,21,7.164,21,6.75v-1.5c0-0.414-0.337-0.75-0.75-0.75h-7.5C12.334,4.5,12,4.836,12,5.25z"/>
	<path fill-rule="evenodd" clip-rule="evenodd" fill="#252A2A" d="M0,1.5v6C0,8.329,0.671,9,1.5,9h6C8.329,9,9,8.329,9,7.5v-6
		C9,0.671,8.329,0,7.5,0h-6C0.671,0,0,0.671,0,1.5z M6,6H3V3h3V6z"/>
	<path fill-rule="evenodd" clip-rule="evenodd" fill="#252A2A" d="M0,13.5v6C0,20.329,0.671,21,1.5,21h6C8.329,21,9,20.329,9,19.5
		v-6C9,12.671,8.329,12,7.5,12h-6C0.671,12,0,12.671,0,13.5z M6,18H3v-3h3V18z"/>
	<path fill-rule="evenodd" clip-rule="evenodd" fill="#252A2A" d="M12.75,15h10.5c0.413,0,0.75-0.336,0.75-0.75v-1.5
		c0-0.414-0.337-0.75-0.75-0.75h-10.5C12.334,12,12,12.336,12,12.75v1.5C12,14.664,12.334,15,12.75,15z"/>
	<path fill-rule="evenodd" clip-rule="evenodd" fill="#252A2A" d="M12.75,19.5h7.5c0.413,0,0.75-0.336,0.75-0.75v-1.5
		c0-0.414-0.337-0.75-0.75-0.75h-7.5c-0.416,0-0.75,0.336-0.75,0.75v1.5C12,19.164,12.334,19.5,12.75,19.5z"/>
</g>
</svg>
