<?xml version="1.0" encoding="utf-8"?>
<!-- Generator: Adobe Illustrator 16.2.1, SVG Export Plug-In . SVG Version: 6.00 Build 0)  -->
<!DOCTYPE svg PUBLIC "-//W3C//DTD SVG 1.1//EN" "http://www.w3.org/Graphics/SVG/1.1/DTD/svg11.dtd">
<svg version="1.1" id="Layer_1" xmlns="http://www.w3.org/2000/svg" xmlns:xlink="http://www.w3.org/1999/xlink" x="0px" y="0px"
	 width="21px" height="24px" viewBox="0 0 21 24" enable-background="new 0 0 21 24" xml:space="preserve">
<g id="Time_2_x2C__Watch_1">
	<path fill="#252A2A" d="M21,12c0-4.187-2.455-7.79-6-9.477V1.5C15,0.671,14.329,0,13.5,0h-6C6.673,0,6,0.671,6,1.5v1.023
		C2.456,4.21,0,7.813,0,12s2.456,7.79,6,9.477V22.5C6,23.329,6.673,24,7.5,24h6c0.829,0,1.5-0.671,1.5-1.5v-1.023
		C18.545,19.79,21,16.187,21,12z M10.5,19.5C6.364,19.5,3,16.135,3,12s3.364-7.5,7.5-7.5S18,7.865,18,12S14.636,19.5,10.5,19.5z"/>
	<path fill="#252A2A" d="M13.5,12h-3V9c0-0.829-0.671-1.5-1.5-1.5S7.5,8.171,7.5,9v4.5C7.5,14.329,8.171,15,9,15h4.5
		c0.829,0,1.5-0.671,1.5-1.5S14.329,12,13.5,12z"/>
</g>
</svg>
